<svg width="173" height="104" viewBox="0 0 173 104" fill="none" xmlns="http://www.w3.org/2000/svg">
<path d="M90.536 61.648L85.992 68.736V72H83.848V68.736L79.304 61.648H81.768L85.592 67.84H84.312L88.072 61.648H90.536ZM94.2038 61.648V70.224H101.084V72H92.0758V61.648H94.2038ZM104.676 69.744V67.968H111.524V69.744H104.676ZM102.1 72L106.964 61.648H109.268L114.18 72H111.86L107.604 62.672H108.628L104.404 72H102.1ZM115.685 72V61.648H121.653C123.04 61.648 124.09 61.8827 124.805 62.352C125.53 62.8107 125.893 63.4987 125.893 64.416C125.893 65.0027 125.749 65.4667 125.461 65.808C125.173 66.1387 124.762 66.384 124.229 66.544C123.706 66.704 123.088 66.8053 122.373 66.848L122.437 66.736C122.96 66.7467 123.45 66.784 123.909 66.848C124.378 66.912 124.789 67.0293 125.141 67.2C125.493 67.3707 125.77 67.6107 125.973 67.92C126.176 68.2187 126.277 68.6133 126.277 69.104C126.277 69.744 126.106 70.2773 125.765 70.704C125.424 71.12 124.949 71.4347 124.341 71.648C123.733 71.8613 123.029 71.9787 122.229 72H115.685ZM117.813 70.24H122.005C122.677 70.24 123.194 70.1333 123.557 69.92C123.92 69.696 124.101 69.344 124.101 68.864C124.101 68.512 123.994 68.256 123.781 68.096C123.568 67.936 123.285 67.84 122.933 67.808C122.581 67.7653 122.202 67.744 121.797 67.744H117.813V70.24ZM117.813 66.032H121.573C122.245 66.032 122.762 65.936 123.125 65.744C123.488 65.5413 123.669 65.2 123.669 64.72C123.669 64.24 123.488 63.904 123.125 63.712C122.762 63.5093 122.282 63.408 121.685 63.408H117.813V66.032ZM127.482 68.512H129.642C129.684 68.8747 129.85 69.2053 130.138 69.504C130.436 69.792 130.826 70.0213 131.306 70.192C131.786 70.352 132.324 70.432 132.922 70.432C133.466 70.432 133.914 70.3733 134.266 70.256C134.618 70.1387 134.879 69.9733 135.05 69.76C135.22 69.5467 135.306 69.2907 135.306 68.992C135.306 68.704 135.199 68.4853 134.986 68.336C134.772 68.176 134.436 68.048 133.978 67.952C133.519 67.8453 132.916 67.7387 132.17 67.632C131.583 67.5467 131.028 67.4293 130.506 67.28C129.983 67.12 129.519 66.9173 129.114 66.672C128.719 66.4267 128.404 66.128 128.17 65.776C127.946 65.4133 127.834 64.9867 127.834 64.496C127.834 63.888 128.004 63.3547 128.346 62.896C128.698 62.4373 129.215 62.08 129.898 61.824C130.58 61.568 131.418 61.44 132.41 61.44C133.903 61.44 135.05 61.76 135.85 62.4C136.66 63.0293 137.055 63.8987 137.034 65.008H134.954C134.911 64.3787 134.644 63.9253 134.154 63.648C133.674 63.3707 133.066 63.232 132.33 63.232C131.647 63.232 131.082 63.3333 130.634 63.536C130.196 63.7387 129.978 64.0853 129.978 64.576C129.978 64.768 130.031 64.9387 130.138 65.088C130.244 65.2267 130.426 65.3493 130.682 65.456C130.938 65.5627 131.284 65.664 131.722 65.76C132.159 65.856 132.703 65.952 133.354 66.048C133.962 66.1333 134.511 66.2507 135.002 66.4C135.503 66.5387 135.93 66.7253 136.282 66.96C136.644 67.184 136.922 67.472 137.114 67.824C137.306 68.176 137.402 68.608 137.402 69.12C137.402 69.7493 137.236 70.2987 136.906 70.768C136.586 71.2267 136.084 71.584 135.402 71.84C134.73 72.096 133.855 72.224 132.778 72.224C132.01 72.224 131.332 72.144 130.746 71.984C130.159 71.8133 129.652 71.5893 129.226 71.312C128.799 71.0347 128.452 70.7307 128.186 70.4C127.919 70.0693 127.727 69.7387 127.61 69.408C127.503 69.0773 127.46 68.7787 127.482 68.512ZM92.312 83.272C92.216 84.104 91.9227 84.8133 91.432 85.4C90.9413 85.9867 90.2747 86.4347 89.432 86.744C88.5893 87.0533 87.5867 87.208 86.424 87.208C85.4533 87.208 84.5627 87.096 83.752 86.872C82.952 86.648 82.2587 86.312 81.672 85.864C81.096 85.416 80.648 84.8613 80.328 84.2C80.008 83.528 79.848 82.744 79.848 81.848C79.848 80.952 80.008 80.168 80.328 79.496C80.648 78.824 81.096 78.264 81.672 77.816C82.2587 77.3573 82.952 77.016 83.752 76.792C84.5627 76.5573 85.4533 76.44 86.424 76.44C87.5867 76.44 88.5893 76.6 89.432 76.92C90.2853 77.24 90.9573 77.6987 91.448 78.296C91.9387 78.8827 92.2267 79.5973 92.312 80.44H90.2C90.0613 79.992 89.8267 79.608 89.496 79.288C89.176 78.9573 88.76 78.7067 88.248 78.536C87.736 78.3653 87.128 78.28 86.424 78.28C85.5493 78.28 84.7813 78.4187 84.12 78.696C83.4587 78.9627 82.9467 79.3627 82.584 79.896C82.2213 80.4187 82.04 81.0693 82.04 81.848C82.04 82.616 82.2213 83.2613 82.584 83.784C82.9467 84.3067 83.4587 84.7067 84.12 84.984C84.7813 85.2507 85.5493 85.384 86.424 85.384C87.128 85.384 87.7307 85.2987 88.232 85.128C88.744 84.9573 89.16 84.712 89.48 84.392C89.8107 84.072 90.0507 83.6987 90.2 83.272H92.312ZM103.911 76.648L99.367 83.736V87H97.223V83.736L92.679 76.648H95.143L98.967 82.84H97.687L101.447 76.648H103.911ZM105.451 87V76.648H111.419C112.805 76.648 113.856 76.8827 114.571 77.352C115.296 77.8107 115.659 78.4987 115.659 79.416C115.659 80.0027 115.515 80.4667 115.227 80.808C114.939 81.1387 114.528 81.384 113.995 81.544C113.472 81.704 112.853 81.8053 112.139 81.848L112.203 81.736C112.725 81.7467 113.216 81.784 113.675 81.848C114.144 81.912 114.555 82.0293 114.907 82.2C115.259 82.3707 115.536 82.6107 115.739 82.92C115.941 83.2187 116.043 83.6133 116.043 84.104C116.043 84.744 115.872 85.2773 115.531 85.704C115.189 86.12 114.715 86.4347 114.107 86.648C113.499 86.8613 112.795 86.9787 111.995 87H105.451ZM107.579 85.24H111.771C112.443 85.24 112.96 85.1333 113.323 84.92C113.685 84.696 113.867 84.344 113.867 83.864C113.867 83.512 113.76 83.256 113.547 83.096C113.333 82.936 113.051 82.84 112.699 82.808C112.347 82.7653 111.968 82.744 111.563 82.744H107.579V85.24ZM107.579 81.032H111.339C112.011 81.032 112.528 80.936 112.891 80.744C113.253 80.5413 113.435 80.2 113.435 79.72C113.435 79.24 113.253 78.904 112.891 78.712C112.528 78.5093 112.048 78.408 111.451 78.408H107.579V81.032ZM120.063 82.68V85.224H128.047V87H117.935V76.648H128.031V78.424H120.063V81H126.591V82.68H120.063ZM130.232 87V76.648H137.256C138.056 76.648 138.749 76.76 139.336 76.984C139.933 77.1973 140.397 77.5387 140.728 78.008C141.059 78.4667 141.224 79.0587 141.224 79.784C141.224 80.2747 141.139 80.6907 140.968 81.032C140.797 81.3733 140.557 81.6507 140.248 81.864C139.949 82.0773 139.603 82.2427 139.208 82.36C138.813 82.4667 138.392 82.536 137.944 82.568L137.72 82.44C138.467 82.4507 139.08 82.5147 139.56 82.632C140.04 82.7387 140.397 82.9413 140.632 83.24C140.877 83.528 141 83.96 141 84.536V87H138.872V84.68C138.872 84.2853 138.803 83.9813 138.664 83.768C138.525 83.544 138.275 83.3893 137.912 83.304C137.56 83.2187 137.048 83.176 136.376 83.176H132.36V87H130.232ZM132.36 81.512H137.256C137.853 81.512 138.307 81.368 138.616 81.08C138.936 80.792 139.096 80.4027 139.096 79.912C139.096 79.4427 138.936 79.0853 138.616 78.84C138.307 78.5947 137.853 78.472 137.256 78.472H132.36V81.512ZM79.544 98.512H81.704C81.7467 98.8747 81.912 99.2053 82.2 99.504C82.4987 99.792 82.888 100.021 83.368 100.192C83.848 100.352 84.3867 100.432 84.984 100.432C85.528 100.432 85.976 100.373 86.328 100.256C86.68 100.139 86.9413 99.9733 87.112 99.76C87.2827 99.5467 87.368 99.2907 87.368 98.992C87.368 98.704 87.2613 98.4853 87.048 98.336C86.8347 98.176 86.4987 98.048 86.04 97.952C85.5813 97.8453 84.9787 97.7387 84.232 97.632C83.6453 97.5467 83.0907 97.4293 82.568 97.28C82.0453 97.12 81.5813 96.9173 81.176 96.672C80.7813 96.4267 80.4667 96.128 80.232 95.776C80.008 95.4133 79.896 94.9867 79.896 94.496C79.896 93.888 80.0667 93.3547 80.408 92.896C80.76 92.4373 81.2773 92.08 81.96 91.824C82.6427 91.568 83.48 91.44 84.472 91.44C85.9653 91.44 87.112 91.76 87.912 92.4C88.7227 93.0293 89.1173 93.8987 89.096 95.008H87.016C86.9733 94.3787 86.7067 93.9253 86.216 93.648C85.736 93.3707 85.128 93.232 84.392 93.232C83.7093 93.232 83.144 93.3333 82.696 93.536C82.2587 93.7387 82.04 94.0853 82.04 94.576C82.04 94.768 82.0933 94.9387 82.2 95.088C82.3067 95.2267 82.488 95.3493 82.744 95.456C83 95.5627 83.3467 95.664 83.784 95.76C84.2213 95.856 84.7653 95.952 85.416 96.048C86.024 96.1333 86.5733 96.2507 87.064 96.4C87.5653 96.5387 87.992 96.7253 88.344 96.96C88.7067 97.184 88.984 97.472 89.176 97.824C89.368 98.176 89.464 98.608 89.464 99.12C89.464 99.7493 89.2987 100.299 88.968 100.768C88.648 101.227 88.1467 101.584 87.464 101.84C86.792 102.096 85.9173 102.224 84.84 102.224C84.072 102.224 83.3947 102.144 82.808 101.984C82.2213 101.813 81.7147 101.589 81.288 101.312C80.8613 101.035 80.5147 100.731 80.248 100.4C79.9813 100.069 79.7893 99.7387 79.672 99.408C79.5653 99.0773 79.5227 98.7787 79.544 98.512ZM93.4694 97.68V100.224H101.453V102H91.3414V91.648H101.437V93.424H93.4694V96H99.9974V97.68H93.4694ZM115.625 98.272C115.529 99.104 115.235 99.8133 114.745 100.4C114.254 100.987 113.587 101.435 112.745 101.744C111.902 102.053 110.899 102.208 109.737 102.208C108.766 102.208 107.875 102.096 107.065 101.872C106.265 101.648 105.571 101.312 104.985 100.864C104.409 100.416 103.961 99.8613 103.641 99.2C103.321 98.528 103.161 97.744 103.161 96.848C103.161 95.952 103.321 95.168 103.641 94.496C103.961 93.824 104.409 93.264 104.985 92.816C105.571 92.3573 106.265 92.016 107.065 91.792C107.875 91.5573 108.766 91.44 109.737 91.44C110.899 91.44 111.902 91.6 112.745 91.92C113.598 92.24 114.27 92.6987 114.761 93.296C115.251 93.8827 115.539 94.5973 115.625 95.44H113.513C113.374 94.992 113.139 94.608 112.809 94.288C112.489 93.9573 112.073 93.7067 111.561 93.536C111.049 93.3653 110.441 93.28 109.737 93.28C108.862 93.28 108.094 93.4187 107.433 93.696C106.771 93.9627 106.259 94.3627 105.897 94.896C105.534 95.4187 105.353 96.0693 105.353 96.848C105.353 97.616 105.534 98.2613 105.897 98.784C106.259 99.3067 106.771 99.7067 107.433 99.984C108.094 100.251 108.862 100.384 109.737 100.384C110.441 100.384 111.043 100.299 111.545 100.128C112.057 99.9573 112.473 99.712 112.793 99.392C113.123 99.072 113.363 98.6987 113.513 98.272H115.625ZM127.205 97.424V91.648H129.333V97.648C129.333 98.3307 129.231 98.928 129.029 99.44C128.837 99.952 128.559 100.384 128.197 100.736C127.834 101.088 127.407 101.376 126.917 101.6C126.437 101.813 125.909 101.968 125.333 102.064C124.767 102.16 124.17 102.208 123.541 102.208C122.89 102.208 122.271 102.16 121.685 102.064C121.098 101.968 120.559 101.813 120.069 101.6C119.589 101.376 119.173 101.088 118.821 100.736C118.469 100.384 118.191 99.952 117.989 99.44C117.797 98.928 117.701 98.3307 117.701 97.648V91.648H119.829V97.424C119.829 98.2347 119.989 98.8533 120.309 99.28C120.629 99.696 121.066 99.984 121.621 100.144C122.186 100.293 122.826 100.368 123.541 100.368C124.234 100.368 124.853 100.293 125.397 100.144C125.951 99.984 126.389 99.696 126.709 99.28C127.039 98.8533 127.205 98.2347 127.205 97.424ZM131.795 102V91.648H138.819C139.619 91.648 140.312 91.76 140.899 91.984C141.496 92.1973 141.96 92.5387 142.291 93.008C142.621 93.4667 142.787 94.0587 142.787 94.784C142.787 95.2747 142.701 95.6907 142.531 96.032C142.36 96.3733 142.12 96.6507 141.811 96.864C141.512 97.0773 141.165 97.2427 140.771 97.36C140.376 97.4667 139.955 97.536 139.507 97.568L139.283 97.44C140.029 97.4507 140.643 97.5147 141.123 97.632C141.603 97.7387 141.96 97.9413 142.195 98.24C142.44 98.528 142.563 98.96 142.563 99.536V102H140.435V99.68C140.435 99.2853 140.365 98.9813 140.227 98.768C140.088 98.544 139.837 98.3893 139.475 98.304C139.123 98.2187 138.611 98.176 137.939 98.176H133.923V102H131.795ZM133.923 96.512H138.819C139.416 96.512 139.869 96.368 140.179 96.08C140.499 95.792 140.659 95.4027 140.659 94.912C140.659 94.4427 140.499 94.0853 140.179 93.84C139.869 93.5947 139.416 93.472 138.819 93.472H133.923V96.512ZM145.317 91.648H147.445V102H145.317V91.648ZM149.289 91.648H160.201V93.424H149.289V91.648ZM153.689 93.2H155.817V102H153.689V93.2ZM172.208 91.648L167.664 98.736V102H165.52V98.736L160.976 91.648H163.44L167.264 97.84H165.984L169.744 91.648H172.208Z" fill="white"/>
<path d="M35 39C42.1797 39 48 33.1797 48 26C48 18.8203 42.1797 13 35 13C27.8203 13 22 18.8203 22 26C22 33.1797 27.8203 39 35 39Z" fill="white"/>
<path fill-rule="evenodd" clip-rule="evenodd" d="M22 58H48L35.0002 35L22 58Z" fill="white"/>
</svg>
